<svg width="59" height="55" viewBox="0 0 59 55" fill="none" xmlns="http://www.w3.org/2000/svg">
<circle cx="27.5" cy="27.5" r="27.5" fill="#A66660"/>
<path d="M7.65 34.327C7.474 34.041 7.386 33.799 7.386 33.601C7.386 33.315 7.529 33.095 7.815 32.941C7.947 32.809 8.123 32.743 8.343 32.743C8.607 32.743 8.849 32.853 9.069 33.073C10.367 34.789 12.094 35.647 14.25 35.647C15.306 35.647 16.219 35.405 16.989 34.921C17.781 34.415 18.177 33.689 18.177 32.743C18.177 31.819 17.814 31.126 17.088 30.664C16.362 30.202 15.35 29.806 14.052 29.476C12.226 29.014 10.796 28.42 9.762 27.694C8.728 26.946 8.211 25.857 8.211 24.427C8.211 23.525 8.464 22.722 8.97 22.018C9.476 21.292 10.158 20.731 11.016 20.335C11.896 19.939 12.886 19.741 13.986 19.741C14.932 19.741 15.878 19.928 16.824 20.302C17.792 20.654 18.617 21.226 19.299 22.018C19.497 22.172 19.596 22.392 19.596 22.678C19.596 22.942 19.486 23.173 19.266 23.371C19.112 23.503 18.914 23.569 18.672 23.569C18.452 23.569 18.254 23.481 18.078 23.305C17.55 22.711 16.923 22.26 16.197 21.952C15.471 21.644 14.69 21.49 13.854 21.49C12.82 21.49 11.929 21.732 11.181 22.216C10.455 22.7 10.092 23.426 10.092 24.394C10.136 25.274 10.532 25.945 11.28 26.407C12.05 26.869 13.172 27.287 14.646 27.661C15.79 27.947 16.736 28.266 17.484 28.618C18.232 28.97 18.837 29.465 19.299 30.103C19.783 30.741 20.025 31.588 20.025 32.644C20.025 34.074 19.453 35.218 18.309 36.076C17.165 36.912 15.746 37.33 14.052 37.33C11.368 37.33 9.234 36.329 7.65 34.327ZM24.3398 37C23.9658 37 23.6798 36.89 23.4818 36.67C23.2838 36.428 23.1848 36.109 23.1848 35.713V35.02C23.1848 34.624 23.2838 34.316 23.4818 34.096C23.6798 33.876 23.9658 33.766 24.3398 33.766H24.5708C24.9448 33.766 25.2308 33.876 25.4288 34.096C25.6268 34.316 25.7258 34.624 25.7258 35.02V35.713C25.7258 36.109 25.6268 36.428 25.4288 36.67C25.2308 36.89 24.9448 37 24.5708 37H24.3398ZM31.9517 36.01C31.9517 36.296 31.8527 36.538 31.6547 36.736C31.4787 36.912 31.2477 37 30.9617 37C30.6757 37 30.4337 36.912 30.2357 36.736C30.0597 36.538 29.9717 36.296 29.9717 36.01V20.83C29.9717 20.544 30.0597 20.313 30.2357 20.137C30.4337 19.939 30.6757 19.84 30.9617 19.84C31.2477 19.84 31.4787 19.939 31.6547 20.137C31.8527 20.313 31.9517 20.544 31.9517 20.83V36.01ZM30.9617 17.629C30.5217 17.629 30.1807 17.53 29.9387 17.332C29.6967 17.112 29.5757 16.804 29.5757 16.408V16.078C29.5757 15.682 29.6967 15.385 29.9387 15.187C30.2027 14.967 30.5547 14.857 30.9947 14.857C31.8747 14.857 32.3147 15.264 32.3147 16.078V16.408C32.3147 16.804 32.1937 17.112 31.9517 17.332C31.7317 17.53 31.4017 17.629 30.9617 17.629ZM40.3953 22.051V33.106C40.3953 33.942 40.5493 34.514 40.8573 34.822C41.1653 35.108 41.5723 35.251 42.0783 35.251C42.2103 35.251 42.3753 35.229 42.5733 35.185C42.7713 35.119 42.9253 35.086 43.0353 35.086C43.2333 35.086 43.3983 35.174 43.5303 35.35C43.6843 35.504 43.7613 35.691 43.7613 35.911C43.7613 36.219 43.5853 36.483 43.2333 36.703C42.8813 36.901 42.4633 37 41.9793 37C41.3853 37 40.8573 36.945 40.3953 36.835C39.9333 36.725 39.4823 36.395 39.0423 35.845C38.6243 35.295 38.4153 34.415 38.4153 33.205V22.051H36.0063C35.7423 22.051 35.5113 21.963 35.3133 21.787C35.1373 21.611 35.0493 21.391 35.0493 21.127C35.0493 20.863 35.1373 20.643 35.3133 20.467C35.5113 20.291 35.7423 20.203 36.0063 20.203H38.4153V16.54C38.4153 16.254 38.5033 16.023 38.6793 15.847C38.8773 15.649 39.1193 15.55 39.4053 15.55C39.6913 15.55 39.9223 15.649 40.0983 15.847C40.2963 16.023 40.3953 16.254 40.3953 16.54V20.203H43.6953C43.9373 20.203 44.1463 20.302 44.3223 20.5C44.5203 20.698 44.6193 20.918 44.6193 21.16C44.6193 21.424 44.5313 21.644 44.3553 21.82C44.1793 21.974 43.9593 22.051 43.6953 22.051H40.3953Z" fill="#F6E7E7"/>
</svg>
